<?xml version="1.0" encoding="utf-8"?>
<!-- Generator: Adobe Illustrator 28.2.0, SVG Export Plug-In . SVG Version: 6.00 Build 0)  -->
<svg version="1.1" id="Layer_1" xmlns="http://www.w3.org/2000/svg" xmlns:xlink="http://www.w3.org/1999/xlink" x="0px" y="0px"
	 viewBox="0 0 990.73 392.54" style="enable-background:new 0 0 990.73 392.54;" xml:space="preserve">
<style type="text/css">
	.st0{fill:url(#Path_2_00000062160991584212151730000008292058880911115140_);}
	.st1{fill:url(#Path_3_00000080915304106039155880000014501144394161768334_);}
	.st2{fill:url(#Path_4_00000082368688569608332350000003998234363285634485_);}
	.st3{fill:url(#Path_5_00000052093263460444055410000014479697228744979357_);}
	.st4{fill:url(#Path_6_00000078765079236605201140000004425780179387001228_);}
	.st5{fill:url(#Path_7_00000104694510880958712330000009257700662220708496_);}
	.st6{fill:url(#Path_8_00000108289727208474991950000016321795365631477132_);}
	.st7{fill:url(#Path_9_00000127045822232862552380000002123028551299054010_);}
	.st8{fill:url(#Path_10_00000140004188884598311440000005180428648443364743_);}
	.st9{fill:url(#Path_11_00000130616401390593477670000009853776552279477946_);}
	.st10{fill:url(#Path_12_00000124852614863563982600000009567509792745333660_);}
	.st11{fill:url(#Path_13_00000107578083735229170440000013702778051282115770_);}
	.st12{fill:url(#Path_14_00000024700357038170810200000016659492861635094677_);}
	.st13{fill:#EF7D1A;}
	.st14{fill:#383736;}
	.st15{fill:#638DC9;}
	.st16{fill:#2B2F50;}
</style>
<g>
	<g id="Group_7">
		
			<linearGradient id="Path_2_00000049194709248921290390000004582848854161226632_" gradientUnits="userSpaceOnUse" x1="120.3686" y1="-558.7844" x2="129.4743" y2="-558.7844" gradientTransform="matrix(5.76 0 0 8.2 -395.6349 4911.9775)">
			<stop  offset="0" style="stop-color:#F0821B"/>
			<stop  offset="1" style="stop-color:#F7A620"/>
		</linearGradient>
		<path id="Path_2" style="fill:url(#Path_2_00000049194709248921290390000004582848854161226632_);" d="M308.12,345.22h-9.49v-8.86
			h10.68l1.91-12.84h-9.49v-8.84h10.63l3.17-22.03h9.25l-3.17,22.03h10.87l3.17-22.03h9.1l-3.17,22.03h9.49v8.84h-10.75l-1.82,12.84
			H348v8.84h-10.51l-3.28,22.03h-9.1l3.17-22.03h-10.92l-3.17,22.03h-9.1L308.12,345.22L308.12,345.22z M320.36,323.54l-1.82,12.84
			h10.87l1.82-12.84H320.36z"/>
		
			<linearGradient id="Path_3_00000086684451802772651260000007031754916868958376_" gradientUnits="userSpaceOnUse" x1="135.4964" y1="-556.4474" x2="144.3885" y2="-561.806" gradientTransform="matrix(4.94 0 0 8.19 -313.2165 4917.9604)">
			<stop  offset="0" style="stop-color:#F0821B"/>
			<stop  offset="1" style="stop-color:#F7A620"/>
		</linearGradient>
		<path id="Path_3" style="fill:url(#Path_3_00000086684451802772651260000007031754916868958376_);" d="M364.36,292.69h13.25v62.57
			h31.71v12.01h-44.96L364.36,292.69L364.36,292.69z"/>
		
			<linearGradient id="Path_4_00000078757559156954400460000004515535396526395786_" gradientUnits="userSpaceOnUse" x1="141.425" y1="-565.386" x2="148.1232" y2="-571.8335" gradientTransform="matrix(5.61 0 0 5.84 -370.1264 3662.9785)">
			<stop  offset="0" style="stop-color:#F0821B"/>
			<stop  offset="1" style="stop-color:#F7A620"/>
		</linearGradient>
		<path id="Path_4" style="fill:url(#Path_4_00000078757559156954400460000004515535396526395786_);" d="M427.96,346.35
			c0.24,3.42,1.83,6.59,4.41,8.84c2.55,2.11,5.78,3.24,9.1,3.17c2.78,0.1,5.53-0.58,7.95-1.97c2.13-1.3,4.03-2.96,5.61-4.9l9.1,6.87
			c-2.59,3.39-6,6.06-9.91,7.76c-3.63,1.55-7.53,2.34-11.47,2.33c-3.67,0.01-7.31-0.64-10.75-1.91c-3.24-1.18-6.2-3.01-8.72-5.37
			c-2.48-2.37-4.47-5.21-5.85-8.36c-2.86-7-2.86-14.85,0-21.84c2.76-6.38,8.02-11.35,14.56-13.73c3.44-1.28,7.08-1.93,10.75-1.91
			c3.29-0.06,6.57,0.55,9.61,1.82c2.86,1.18,5.41,3,7.46,5.31c2.19,2.5,3.83,5.43,4.83,8.6c1.2,3.8,1.78,7.77,1.73,11.76v3.47
			h-38.45L427.96,346.35L427.96,346.35z M453.87,336.93c0.09-3.28-1.16-6.45-3.47-8.78c-2.58-2.26-5.95-3.42-9.38-3.22
			c-3.33-0.18-6.58,1.01-9.02,3.28c-2.31,2.36-3.74,5.43-4.06,8.72L453.87,336.93L453.87,336.93z"/>
		
			<linearGradient id="Path_5_00000158015921101952533460000018049859107649569690_" gradientUnits="userSpaceOnUse" x1="156.3124" y1="-564.8011" x2="164.1141" y2="-571.6174" gradientTransform="matrix(5.1 0 0 5.83 -315.9715 3656.7415)">
			<stop  offset="0" style="stop-color:#F0821B"/>
			<stop  offset="1" style="stop-color:#F7A620"/>
		</linearGradient>
		<path id="Path_5" style="fill:url(#Path_5_00000158015921101952533460000018049859107649569690_);" d="M509.87,360.27h-0.34
			c-1.66,2.71-4.06,4.89-6.93,6.27c-2.9,1.33-6.06,2-9.25,1.96c-2.3,0.03-4.59-0.28-6.8-0.91c-2.13-0.59-4.13-1.56-5.92-2.87
			c-1.71-1.26-3.13-2.87-4.17-4.72c-1.08-2.03-1.62-4.32-1.56-6.62c-0.08-2.41,0.43-4.82,1.49-6.99c0.94-1.88,2.28-3.53,3.94-4.83
			c1.73-1.34,3.67-2.38,5.73-3.1c2.2-0.8,4.48-1.38,6.8-1.73c2.35-0.39,4.73-0.63,7.11-0.72c2.38-0.12,4.66-0.17,6.75-0.17h3.16
			v-1.38c0.2-2.78-1.04-5.46-3.28-7.11c-2.44-1.66-5.35-2.5-8.3-2.39c-2.56-0.02-5.1,0.47-7.46,1.44c-2.23,0.89-4.27,2.19-6.02,3.83
			l-6.62-6.62c2.73-2.83,6.12-4.96,9.85-6.2c3.75-1.27,7.69-1.91,11.64-1.91c3.08-0.06,6.15,0.34,9.1,1.19
			c2.19,0.69,4.24,1.74,6.09,3.1c1.53,1.18,2.81,2.66,3.76,4.36c0.85,1.59,1.49,3.27,1.91,5.01c0.36,1.61,0.58,3.25,0.65,4.9
			c0.06,1.55,0.12,2.99,0.12,4.17v29.08h-11.34v-6.99L509.87,360.27L509.87,360.27z M509.15,344.62h-2.63
			c-1.73,0-3.7,0.05-5.92,0.24c-2.08,0.12-4.14,0.45-6.15,1.02c-1.77,0.46-3.43,1.25-4.9,2.33c-1.32,1-2.08,2.58-2.03,4.24
			c-0.05,1.05,0.22,2.09,0.78,2.99c0.52,0.82,1.21,1.51,2.03,2.03c0.88,0.57,1.85,0.97,2.87,1.19c1.04,0.23,2.1,0.36,3.17,0.36
			c3.49,0.31,6.96-0.81,9.61-3.1c2.16-2.28,3.28-5.35,3.1-8.48v-2.8L509.15,344.62L509.15,344.62z"/>
		
			<linearGradient id="Path_6_00000029742709412749258020000015707641007988754341_" gradientUnits="userSpaceOnUse" x1="195.7275" y1="-566.8929" x2="207.43" y2="-574.2048" gradientTransform="matrix(3.56 0 0 5.71 -171.3207 3594.7104)">
			<stop  offset="0" style="stop-color:#F0821B"/>
			<stop  offset="1" style="stop-color:#F7A620"/>
		</linearGradient>
		<path id="Path_6" style="fill:url(#Path_6_00000029742709412749258020000015707641007988754341_);" d="M534.83,316.69h12.66v8
			h0.24c1.3-2.82,3.39-5.21,6.02-6.87c2.69-1.66,5.8-2.51,8.96-2.45c0.76-0.01,1.52,0.07,2.27,0.24c0.76,0.13,1.52,0.31,2.27,0.54
			v12.24c-1.01-0.3-2.05-0.52-3.1-0.65c-0.99-0.16-1.98-0.24-2.99-0.24c-2.47-0.11-4.93,0.44-7.11,1.61
			c-1.64,0.93-3.04,2.22-4.12,3.76c-0.88,1.29-1.53,2.72-1.91,4.24c-0.25,1.04-0.41,2.1-0.47,3.17v27.05h-12.66v-50.63
			L534.83,316.69L534.83,316.69z"/>
		
			<linearGradient id="Path_7_00000023962605594385808960000015442635793777955755_" gradientUnits="userSpaceOnUse" x1="172.6448" y1="-566.3696" x2="181.292" y2="-574.0663" gradientTransform="matrix(5.08 0 0 5.7 -300.6286 3594.574)">
			<stop  offset="0" style="stop-color:#F0821B"/>
			<stop  offset="1" style="stop-color:#F7A620"/>
		</linearGradient>
		<path id="Path_7" style="fill:url(#Path_7_00000023962605594385808960000015442635793777955755_);" d="M577.7,316.69h12.01v8.12
			h0.24c1.27-2.6,3.14-4.85,5.46-6.57c2.94-2.01,6.45-2.99,10.01-2.8c2.95-0.09,5.89,0.48,8.59,1.67c4.45,2.03,7.74,5.99,8.9,10.75
			c0.65,2.43,0.97,4.94,0.96,7.46v31.85h-12.65v-25.53c0-1.56-0.08-3.11-0.24-4.66c-0.13-1.66-0.51-3.29-1.14-4.83
			c-0.59-1.48-1.56-2.77-2.81-3.76c-1.48-1.1-3.29-1.64-5.13-1.56c-1.83-0.06-3.65,0.31-5.31,1.07c-1.39,0.68-2.61,1.66-3.57,2.87
			c-0.96,1.22-1.65,2.62-2.03,4.12c-0.43,1.57-0.65,3.2-0.65,4.83v27.57h-12.65l0.05-50.62L577.7,316.69z"/>
		
			<linearGradient id="Path_8_00000058563277319698503380000004602067327427486340_" gradientUnits="userSpaceOnUse" x1="147.0641" y1="-554.4016" x2="154.1545" y2="-561.626" gradientTransform="matrix(8.35 0 0 8.19 -590.225 4917.9604)">
			<stop  offset="0" style="stop-color:#F0821B"/>
			<stop  offset="1" style="stop-color:#F7A620"/>
		</linearGradient>
		<path id="Path_8" style="fill:url(#Path_8_00000058563277319698503380000004602067327427486340_);" d="M663.44,292.69h11.46
			l32.13,74.57h-15.16l-6.93-17.07h-32.3l-6.75,17.07h-14.87L663.44,292.69z M680.28,338.84l-11.47-30.33l-11.7,30.33H680.28z"/>
		
			<linearGradient id="Path_9_00000075855143591917951740000014167963196061295504_" gradientUnits="userSpaceOnUse" x1="198.7399" y1="-556.4475" x2="207.632" y2="-561.8061" gradientTransform="matrix(4.94 0 0 8.19 -274.6865 4917.9604)">
			<stop  offset="0" style="stop-color:#F0821B"/>
			<stop  offset="1" style="stop-color:#F7A620"/>
		</linearGradient>
		<path id="Path_9" style="fill:url(#Path_9_00000075855143591917951740000014167963196061295504_);" d="M715.32,292.69h13.26v62.57
			h31.7v12.01h-44.96L715.32,292.69L715.32,292.69z"/>
		
			<linearGradient id="Path_10_00000168796968481759946160000014885746460864094133_" gradientUnits="userSpaceOnUse" x1="415.511" y1="-556.827" x2="439.3826" y2="-561.9757" gradientTransform="matrix(1.78 0 0 8.27 11.9979 4959.7344)">
			<stop  offset="0" style="stop-color:#F0821B"/>
			<stop  offset="1" style="stop-color:#F7A620"/>
		</linearGradient>
		<path id="Path_10" style="fill:url(#Path_10_00000168796968481759946160000014885746460864094133_);" d="M767.21,299.55
			c-0.01-2.01,0.81-3.93,2.27-5.31c1.52-1.51,3.59-2.33,5.73-2.27c2.15-0.06,4.24,0.71,5.85,2.15c1.56,1.38,2.43,3.38,2.38,5.46
			c0.06,2.08-0.82,4.09-2.38,5.46c-1.6,1.45-3.7,2.22-5.85,2.15c-2.14,0.06-4.22-0.75-5.73-2.27c-1.46-1.41-2.27-3.35-2.27-5.37
			V299.55z M769.03,316.69h12.66v50.57h-12.66V316.69z"/>
		
			<linearGradient id="Path_11_00000012460076423833711300000017633478310369565589_" gradientUnits="userSpaceOnUse" x1="193.8694" y1="-568.7079" x2="200.9248" y2="-576.2531" gradientTransform="matrix(5.95 0 0 5.56 -356.4997 3513.449)">
			<stop  offset="0" style="stop-color:#F0821B"/>
			<stop  offset="1" style="stop-color:#F7A620"/>
		</linearGradient>
		<path id="Path_11" style="fill:url(#Path_11_00000012460076423833711300000017633478310369565589_);" d="M789.36,316.69h13.8
			l13.5,35.41h0.24l13.65-35.41h12.96l-19.88,50.57h-13.5L789.36,316.69L789.36,316.69z"/>
		
			<linearGradient id="Path_12_00000183231621070965081010000007023445039560074163_" gradientUnits="userSpaceOnUse" x1="454.5358" y1="-557.4634" x2="478.4074" y2="-562.6121" gradientTransform="matrix(1.79 0 0 8.27 25.0814 4959.8145)">
			<stop  offset="0" style="stop-color:#F0821B"/>
			<stop  offset="1" style="stop-color:#F7A620"/>
		</linearGradient>
		<path id="Path_12" style="fill:url(#Path_12_00000183231621070965081010000007023445039560074163_);" d="M849.24,299.55
			c-0.01-2.01,0.81-3.93,2.27-5.31c1.52-1.52,3.59-2.33,5.73-2.27c2.15-0.06,4.24,0.71,5.85,2.15c1.56,1.38,2.44,3.38,2.39,5.46
			c0.06,2.09-0.82,4.09-2.39,5.46c-1.6,1.45-3.7,2.22-5.85,2.15c-2.14,0.07-4.22-0.75-5.73-2.27c-1.46-1.41-2.27-3.35-2.27-5.37
			V299.55z M851.06,316.69h12.65v50.57h-12.65V316.69z"/>
		
			<linearGradient id="Path_13_00000139986127653464185880000005225588639218108095_" gradientUnits="userSpaceOnUse" x1="225.6552" y1="-566.3551" x2="234.3083" y2="-574.0518" gradientTransform="matrix(5.07 0 0 5.7 -267.3017 3594.6536)">
			<stop  offset="0" style="stop-color:#F0821B"/>
			<stop  offset="1" style="stop-color:#F7A620"/>
		</linearGradient>
		<path id="Path_13" style="fill:url(#Path_13_00000139986127653464185880000005225588639218108095_);" d="M878.21,316.69h12.01
			v8.12h0.24c1.27-2.6,3.14-4.85,5.46-6.57c2.94-2.01,6.45-2.99,10.01-2.8c2.96-0.09,5.9,0.48,8.6,1.67
			c4.45,2.03,7.73,5.99,8.9,10.75c0.64,2.44,0.94,4.94,0.91,7.46v31.85h-12.66v-25.53c0-1.56-0.08-3.11-0.24-4.66
			c-0.13-1.66-0.51-3.29-1.14-4.83c-0.59-1.48-1.56-2.77-2.81-3.76c-1.48-1.1-3.29-1.64-5.13-1.56c-1.83-0.06-3.65,0.31-5.31,1.07
			c-1.39,0.68-2.61,1.66-3.59,2.87c-0.96,1.22-1.64,2.62-2.03,4.12c-0.43,1.57-0.65,3.2-0.65,4.83v27.57h-12.56v-50.62
			L878.21,316.69z"/>
		
			<linearGradient id="Path_14_00000165195539231864293780000008161242038001692554_" gradientUnits="userSpaceOnUse" x1="213.3176" y1="-553.2086" x2="223.4166" y2="-560.3689" gradientTransform="matrix(6 0 0 8.47 -346.4323 5069.2798)">
			<stop  offset="0" style="stop-color:#F0821B"/>
			<stop  offset="1" style="stop-color:#F7A620"/>
		</linearGradient>
		<path id="Path_14" style="fill:url(#Path_14_00000165195539231864293780000008161242038001692554_);" d="M990.72,316.69v46.03
			c0.06,4.18-0.51,8.34-1.67,12.36c-1.01,3.48-2.79,6.68-5.2,9.38c-2.47,2.65-5.51,4.69-8.89,5.97c-4.08,1.5-8.4,2.21-12.74,2.09
			c-4.52,0.02-9.02-0.6-13.37-1.82c-4.34-1.25-8.35-3.48-11.7-6.51l7.58-10.33c2.32,2.2,4.99,4.01,7.88,5.37
			c2.99,1.31,6.23,1.96,9.49,1.91c2.61,0.07,5.2-0.36,7.64-1.25c1.91-0.74,3.61-1.93,4.96-3.47c1.27-1.55,2.17-3.36,2.63-5.31
			c0.55-2.27,0.8-4.59,0.78-6.93v-3.7h-0.24c-1.87,2.48-4.39,4.4-7.28,5.55c-2.93,1.21-6.08,1.84-9.25,1.82
			c-3.55,0.05-7.07-0.64-10.33-2.03c-6.06-2.62-10.79-7.6-13.08-13.8c-1.22-3.22-1.84-6.65-1.82-10.09
			c-0.04-3.55,0.52-7.08,1.67-10.45c1.05-3.12,2.73-5.98,4.95-8.42c2.19-2.4,4.85-4.31,7.82-5.62c3.3-1.41,6.87-2.1,10.45-2.03
			c3.45-0.01,6.86,0.7,10.01,2.09c3.1,1.41,5.68,3.77,7.35,6.75h0.24v-7.58h12.07l0.06,0.02L990.72,316.69z M963.74,326.78
			c-2.09-0.04-4.16,0.34-6.09,1.14c-1.76,0.65-3.35,1.69-4.66,3.04c-1.34,1.34-2.38,2.94-3.05,4.72c-0.75,1.96-1.14,4.05-1.13,6.15
			c-0.03,1.95,0.36,3.88,1.13,5.67c1.47,3.54,4.29,6.35,7.83,7.82c1.87,0.78,3.88,1.17,5.91,1.14c2.15,0.04,4.28-0.34,6.27-1.14
			c1.77-0.7,3.38-1.76,4.71-3.1c1.31-1.33,2.32-2.92,2.99-4.66c0.73-1.88,1.1-3.89,1.08-5.91c0.51-7.7-5.31-14.37-13.01-14.88
			c-0.66-0.05-1.32-0.04-1.97,0.01L963.74,326.78L963.74,326.78z"/>
	</g>
	<path id="Path_15" class="st13" d="M6.42,80.96l71.47,57.08c14.39,11.22,30.87,13.25,45.26-1.43l62.28-69.44
		c8.06-8.96,17.85-0.84,10.39,9.19l-65.14,97.98c-6.93,8.65-3.47,16.12,0,24.78l62.22,158.58c3.76,10.09-6.93,13.25-11.83,6.03
		l-80.09-123.95c-1.49-2.65-4.73-3.75-7.53-2.57c-0.9,0.52-1.69,1.21-2.33,2.03L11.94,351.92c-4.3,5.79-11.83,2.87-8.96-3.76
		l58.81-153.92c6.17-9.11,5.59-21.2-1.43-29.68L2.45,91.06C-1.64,87.05-0.8,76.96,6.42,80.96L6.42,80.96z"/>
	<path id="Path_16" class="st13" d="M100.7,63.71c15.28,0,27.64,14.99,27.64,33.43s-12.43,33.43-27.64,33.43
		s-27.94-14.99-27.94-33.43S85.42,63.71,100.7,63.71L100.7,63.71z"/>
	<path id="Path_17" class="st14" d="M239.88,27.94L277.08,0l-11.52,38.33l-34.86,26.51L239.88,27.94L239.88,27.94z"/>
	<path id="Path_18" class="st14" d="M260.36,4.06l1.73,3.17l-25.98,18.15l-3.7,21.01l-3.76-0.3l4.01-22.15L260.36,4.06L260.36,4.06z
		"/>
	<path id="Path_19" class="st15" d="M201.25,58.51l9.79,0.3c3.47,5.46,8.65,6.37,14.99,2.33l5.2,0.3l-0.84,3.47
		c-4.76,1.42-9.73,2.01-14.69,1.73c-2.57,0-5.46-3.47-7.76-3.47h-6.69V58.51L201.25,58.51z"/>
	<path id="Path_20" class="st13" d="M274.21,95.94c1.43-0.3,472.39-114.67,591.69,8.36l4.06,13.85
		c-20.05-18.8-43.66-33.4-69.44-42.93c-39.47-13.55-89.61-19.28-143.24-19.88c-172.61-2.03-380.42,48.42-381.33,48.72L274.21,95.94
		L274.21,95.94z"/>
	<path id="Path_21" class="st16" d="M231.22,241.81c-7.04,0.17-13.8-2.78-18.45-8.06c-4.89-5.45-7.48-12.57-7.22-19.88v-24.17
		c-0.26-7.31,2.34-14.44,7.22-19.88c4.61-5.34,11.39-8.3,18.45-8.06h47.32v14.99h-47.32c-3.25-0.08-6.31,1.55-8.06,4.3
		c-2.03,2.75-3.14,6.08-3.17,9.49v5.2h58.24v14.99h-58.51v2.33c-0.02,3.43,1.09,6.76,3.17,9.49c1.8,2.67,4.85,4.2,8.06,4.06h47.53
		v15.29h-47.22L231.22,241.81L231.22,241.81z"/>
	<path id="Path_22" class="st16" d="M383.41,241.81c-7.07,0.31-13.88-2.66-18.45-8.06c-4.94-5.53-7.53-12.77-7.22-20.17v-24.82
		c-0.3-7.23,2.3-14.29,7.22-19.59c4.77-5.09,11.48-7.91,18.45-7.76h52.48v14.99h-52.48c-3.25-0.08-6.31,1.55-8.05,4.3
		c-2.04,2.86-3.14,6.28-3.17,9.79V213c0.02,3.51,1.13,6.93,3.17,9.79c1.87,2.58,4.87,4.1,8.05,4.06h52.48v14.99h-52.48V241.81
		L383.41,241.81z"/>
	<path id="Path_23" class="st16" d="M525.21,241.81h-14.39v-42.63h-44.96c-3.36-0.08-6.56,1.43-8.65,4.06
		c-2.05,3.06-3.06,6.71-2.87,10.39c-0.05,3.39,1.18,6.68,3.46,9.19c2.03,2.54,5.1,4.03,8.36,4.06h35.77v14.99h-36.01
		c-7.43,0.31-14.57-2.9-19.28-8.65c-4.75-6.16-7.11-13.85-6.62-21.62c-0.2-7.27,2.52-14.31,7.57-19.55
		c4.8-5.04,11.49-7.85,18.45-7.76h43.82c-1.57-4.41-5.7-7.41-10.38-7.53h-48.01v-14.99h47.82c7.04-0.18,13.8,2.78,18.45,8.06
		c4.89,5.45,7.48,12.57,7.22,19.88l0.3,52.12L525.21,241.81L525.21,241.81z"/>
	<path id="Path_24" class="st16" d="M596.98,219.36l21.91,10.39v11.83h-12.11l-50.45-23.66v-13.65h36.9
		c8.96,0,13.56-4.9,13.56-14.39c0.79-6.22-3.6-11.9-9.82-12.69c-1.04-0.13-2.1-0.12-3.14,0.03h-30.57
		c-3.29-0.06-6.45,1.31-8.65,3.76c-2.26,2.43-3.5,5.64-3.46,8.96v51.59h-14.39v-50.45c-0.17-7.53,2.51-14.85,7.53-20.48
		c4.66-5.51,11.53-8.68,18.75-8.65h32.54c7.37-0.35,14.46,2.87,19.05,8.65c4.34,6.04,6.58,13.34,6.37,20.78
		c0.27,6.55-2.01,12.95-6.37,17.85c-4.36,5.5-10.66,9.12-17.62,10.09L596.98,219.36L596.98,219.36z"/>
	<path id="Path_25" class="st16" d="M657.83,241.81c-7.04,0.18-13.8-2.78-18.45-8.06c-4.89-5.45-7.47-12.57-7.22-19.88v-24.17
		c-0.26-7.31,2.33-14.44,7.22-19.88c4.62-5.34,11.4-8.3,18.45-8.06h47.32v14.99h-47.32c-3.25-0.08-6.31,1.55-8.06,4.3
		c-2.03,2.75-3.14,6.08-3.17,9.49v5.2h58.24v14.99H646.6v2.33c-0.02,3.43,1.09,6.76,3.17,9.49c1.8,2.67,4.85,4.2,8.06,4.06h47.32
		v15.29h-47.32V241.81L657.83,241.81z"/>
	<path id="Path_26" class="st16" d="M736.46,241.83c-7.04,0.17-13.8-2.78-18.45-8.06c-4.89-5.45-7.48-12.57-7.22-19.88v-24.2
		c-0.26-7.31,2.33-14.44,7.22-19.88c4.7-5.22,11.42-8.16,18.45-8.06h47.53v14.99h-47.53c-3.25-0.08-6.31,1.55-8.05,4.3
		c-2.04,2.86-3.14,6.28-3.17,9.79v4.9h58.24v14.99h-58.24v2.57c-0.02,3.43,1.09,6.76,3.17,9.49c1.79,2.66,4.85,4.2,8.05,4.06h47.53
		v15.01L736.46,241.83L736.46,241.83z"/>
	<path id="Path_27" class="st16" d="M855.21,219.36l21.91,10.39l-0.29,11.83h-12.38l-49.85-23.95v-13.31h36.89
		c8.96,0,13.55-4.9,13.55-14.39c0.8-6.21-3.59-11.89-9.8-12.69c-1.05-0.13-2.1-0.12-3.15,0.03h-30.57
		c-3.29-0.06-6.45,1.31-8.65,3.76c-2.26,2.43-3.51,5.63-3.47,8.96v51.59H795v-50.45c-0.17-7.53,2.51-14.85,7.52-20.48
		c4.67-5.51,11.53-8.68,18.75-8.65h32.3c7.37-0.35,14.46,2.87,19.05,8.65c4.47,5.98,6.72,13.32,6.37,20.78
		c0.28,6.55-2.01,12.95-6.37,17.85c-4.32,5.42-10.52,9.03-17.38,10.09l-0.03-0.01L855.21,219.36z"/>
	<path id="Path_28" class="st16" d="M959.53,176.38c-3.2-0.07-6.22,1.45-8.06,4.06c-2.03,2.86-3.14,6.28-3.16,9.79v23.37
		c0.26,7.31-2.33,14.44-7.22,19.88c-4.65,5.46-11.59,8.44-18.75,8.06h-31.06v-14.99h31.11c3.22-0.05,6.22-1.65,8.06-4.3
		c2.08-2.73,3.18-6.06,3.17-9.49v-23.38c-0.26-7.31,2.33-14.44,7.22-19.88c4.73-5.35,11.61-8.3,18.75-8.06h30.86v14.98l-30.92-0.05
		V176.38z"/>
	<path id="Path_29" class="st16" d="M293.5,195.42h47.82v14.99H293.5V195.42z"/>
</g>
</svg>
